<svg width="24" height="24" viewBox="0 0 24 24" fill="none" xmlns="http://www.w3.org/2000/svg">
<path d="M20.6 12C20.6 16.7497 16.7497 20.6 12 20.6C7.25038 20.6 3.40002 16.7497 3.40002 12C3.40002 7.25038 7.25038 3.40002 12 3.40002C16.7497 3.40002 20.6 7.25038 20.6 12ZM12.0204 7.76952C11.3453 7.31946 10.4773 7.2775 9.76194 7.66034C9.04659 8.04318 8.60002 8.78868 8.60002 9.60003V14.4C8.60002 15.2114 9.04659 15.9569 9.76194 16.3397C10.4773 16.7226 11.3453 16.6806 12.0204 16.2305L15.6204 13.8305C16.2324 13.4225 16.6 12.7356 16.6 12C16.6 11.2644 16.2324 10.5775 15.6204 10.1695L12.0204 7.76952Z" fill="white" stroke="white" stroke-width="2"/>
</svg>
